<?xml version="1.0" standalone="no"?><svg xmlns="http://www.w3.org/2000/svg" viewBox="0 0 1440 320"><path fill="#f9bec7" fill-opacity="1" d="M0,320L40,293.3C80,267,160,213,240,197.3C320,181,400,203,480,218.7C560,235,640,245,720,218.7C800,192,880,128,960,106.7C1040,85,1120,107,1200,122.7C1280,139,1360,149,1400,154.7L1440,160L1440,320L1400,320C1360,320,1280,320,1200,320C1120,320,1040,320,960,320C880,320,800,320,720,320C640,320,560,320,480,320C400,320,320,320,240,320C160,320,80,320,40,320L0,320Z"></path></svg>